<svg width="60" height="60" viewBox="0 0 60 60" fill="none" xmlns="http://www.w3.org/2000/svg">
<g clip-path="url(#clip0_112_79)">
<path d="M54 0.75H6C3.10051 0.75 0.75 3.10051 0.75 6V54C0.75 56.8995 3.10051 59.25 6 59.25H54C56.8995 59.25 59.25 56.8995 59.25 54V6C59.25 3.10051 56.8995 0.75 54 0.75Z" fill="white"/>
<mask id="mask0_112_79" style="mask-type:luminance" maskUnits="userSpaceOnUse" x="15" y="15" width="30" height="30">
<path d="M45 15H15V45H45V15Z" fill="white"/>
</mask>
<g mask="url(#mask0_112_79)">
<path d="M44.4 30.341C44.4 29.2773 44.3046 28.2546 44.1273 27.2727H30V33.075H38.0727C37.725 34.95 36.6683 36.5387 35.0796 37.6023V41.366H39.9273C42.7637 38.7546 44.4 34.9091 44.4 30.341Z" fill="#4285F4"/>
<path d="M30.0001 45C34.0501 45 37.4455 43.6568 39.9272 41.366L35.0795 37.6023C33.7364 38.5023 32.0182 39.0341 30.0001 39.0341C26.0932 39.0341 22.7864 36.3954 21.6068 32.85H16.5955V36.7364C19.0637 41.6387 24.1364 45 30.0001 45Z" fill="#34A853"/>
<path d="M21.6068 32.85C21.3068 31.95 21.1364 30.9887 21.1364 30C21.1364 29.0114 21.3068 28.05 21.6068 27.15V23.2637H16.5954C15.5796 25.2887 15 27.5796 15 30C15 32.4204 15.5796 34.7114 16.5954 36.7364L21.6068 32.85Z" fill="#FBBC04"/>
<path d="M30.0001 20.9659C32.2022 20.9659 34.1795 21.7227 35.7341 23.2091L40.0364 18.9067C37.4387 16.4863 34.0432 15 30.0001 15C24.1364 15 19.0637 18.3614 16.5955 23.2636L21.6068 27.15C22.7864 23.6046 26.0932 20.9659 30.0001 20.9659Z" fill="#E94235"/>
</g>
<path d="M54 0.75H6C3.10051 0.75 0.75 3.10051 0.75 6V54C0.75 56.8995 3.10051 59.25 6 59.25H54C56.8995 59.25 59.25 56.8995 59.25 54V6C59.25 3.10051 56.8995 0.75 54 0.75Z" stroke="#747775"/>
</g>
<defs>
<clipPath id="clip0_112_79">
<rect width="60" height="60" fill="white"/>
</clipPath>
</defs>
</svg>
